<?xml version="1.0" standalone="no"?>
<!DOCTYPE svg PUBLIC "-//W3C//DTD SVG 20010904//EN"
 "http://www.w3.org/TR/2001/REC-SVG-20010904/DTD/svg10.dtd">
<svg version="1.0" xmlns="http://www.w3.org/2000/svg"
 width="500.000000pt" height="500.000000pt" viewBox="0 0 500.000000 500.000000"
 preserveAspectRatio="xMidYMid meet">
<metadata>
Created by potrace 1.14, written by Peter Selinger 2001-2017
</metadata>
<g transform="translate(0.000000,500.000000) scale(0.100000,-0.100000)"
fill="#000000" stroke="none">
<path d="M2280 4450 c-422 -59 -806 -243 -1102 -528 -312 -301 -511 -682 -585
-1118 -22 -133 -24 -455 -4 -579 29 -178 107 -429 178 -569 14 -28 67 -115
119 -192 157 -239 366 -439 618 -593 143 -88 228 -127 389 -182 404 -136 821
-138 1222 -4 169 56 253 95 404 188 469 288 793 753 892 1279 26 143 36 423
20 564 -39 326 -150 627 -335 899 -285 420 -710 703 -1221 811 -101 21 -153
26 -325 29 -113 2 -234 0 -270 -5z m292 -215 c0 -5 -5 -11 -11 -13 -6 -2 -11
4 -11 13 0 9 5 15 11 13 6 -2 11 -8 11 -13z m-310 -10 c0 -5 -5 -11 -11 -13
-6 -2 -11 4 -11 13 0 9 5 15 11 13 6 -2 11 -8 11 -13z m1138 -74 c0 -6 -4 -13
-10 -16 -5 -3 -10 1 -10 9 0 9 5 16 10 16 6 0 10 -4 10 -9z m-1780 -16 c0 -8
-4 -15 -9 -15 -13 0 -22 16 -14 24 11 11 23 6 23 -9z m360 -65 c0 -5 -4 -10
-10 -10 -5 0 -10 5 -10 10 0 6 5 10 10 10 6 0 10 -4 10 -10z m1230 -20 c0 -5
-4 -10 -10 -10 -5 0 -10 5 -10 10 0 6 5 10 10 10 6 0 10 -4 10 -10z m-809 -23
c-1 -12 -15 -9 -19 4 -3 6 1 10 8 8 6 -3 11 -8 11 -12z m491 -81 c16 -12 16
-14 -3 -29 -18 -16 -20 -16 -38 0 -19 15 -19 17 -3 29 9 8 19 13 22 13 3 0 13
-5 22 -13z m-582 -6 c0 -5 -4 -10 -10 -10 -5 0 -10 5 -10 10 0 6 5 10 10 10 6
0 10 -4 10 -10z m1264 -21 c-3 -5 -10 -7 -15 -3 -5 3 -7 10 -3 15 3 5 10 7 15
3 5 -3 7 -10 3 -15z m-1944 -39 c0 -5 -4 -10 -10 -10 -5 0 -10 5 -10 10 0 6 5
10 10 10 6 0 10 -4 10 -10z m870 -41 c0 -5 -7 -9 -15 -9 -15 0 -20 12 -9 23 8
8 24 -1 24 -14z m-1220 -4 c0 -8 -4 -15 -10 -15 -5 0 -10 7 -10 15 0 8 5 15
10 15 6 0 10 -7 10 -15z m1440 -65 c0 -5 -5 -10 -11 -10 -5 0 -7 5 -4 10 3 6
8 10 11 10 2 0 4 -4 4 -10z m-916 -21 c-3 -5 -10 -7 -15 -3 -5 3 -7 10 -3 15
3 5 10 7 15 3 5 -3 7 -10 3 -15z m1991 12 c3 -5 1 -12 -5 -16 -5 -3 -10 1 -10
9 0 18 6 21 15 7z m-2290 -31 c3 -5 -1 -10 -9 -10 -9 0 -16 5 -16 10 0 6 4 10
9 10 6 0 13 -4 16 -10z m1715 -10 c0 -5 -5 -10 -11 -10 -5 0 -7 5 -4 10 3 6 8
10 11 10 2 0 4 -4 4 -10z m-626 -81 c-3 -5 -10 -7 -15 -3 -5 3 -7 10 -3 15 3
5 10 7 15 3 5 -3 7 -10 3 -15z m-1504 -9 c0 -5 -7 -10 -15 -10 -8 0 -15 5 -15
10 0 6 7 10 15 10 8 0 15 -4 15 -10z m875 0 c3 -5 1 -10 -4 -10 -6 0 -11 5
-11 10 0 6 2 10 4 10 3 0 8 -4 11 -10z m245 0 c0 -5 -4 -10 -10 -10 -5 0 -10
5 -10 10 0 6 5 10 10 10 6 0 10 -4 10 -10z m-359 -75 c21 -7 21 -7 -2 -19 -13
-6 -31 -26 -40 -43 l-16 -32 -14 32 c-8 17 -24 37 -36 43 l-23 11 26 11 c14 7
30 26 36 44 l11 31 18 -36 c10 -19 28 -39 40 -42z m1749 25 c0 -5 -4 -10 -10
-10 -5 0 -10 5 -10 10 0 6 5 10 10 10 6 0 10 -4 10 -10z m-510 -21 c0 -5 -7
-9 -15 -9 -15 0 -20 12 -9 23 8 8 24 -1 24 -14z m320 7 c0 -3 -4 -8 -10 -11
-5 -3 -10 -1 -10 4 0 6 5 11 10 11 6 0 10 -2 10 -4z m-741 -102 c581 -145 942
-243 965 -262 64 -57 81 -191 37 -290 -24 -52 -80 -112 -106 -112 -7 0 -16 -4
-20 -9 -3 -5 26 -19 64 -31 103 -33 125 -50 161 -124 30 -61 32 -71 28 -143
-6 -92 -32 -156 -82 -206 l-35 -35 105 -38 c95 -34 109 -41 140 -82 48 -64 68
-138 61 -232 -11 -159 -76 -256 -202 -303 -122 -46 -336 -128 -465 -179 -69
-27 -143 -55 -165 -62 -22 -7 -116 -44 -210 -81 -407 -161 -585 -224 -621
-218 -19 3 -139 59 -267 123 -721 364 -851 431 -864 442 -50 41 -33 108 35
141 58 28 84 64 90 125 6 67 -23 132 -75 165 -53 34 -65 51 -61 89 3 28 10 36
51 56 41 20 46 25 37 42 -15 29 4 66 48 94 86 54 84 204 -2 240 -46 19 -61 49
-46 86 6 15 21 32 33 38 21 9 21 10 -8 23 -78 34 -83 63 -21 123 79 77 83 166
9 200 -52 24 -70 59 -48 93 20 29 41 38 175 69 58 14 278 69 490 124 571 148
613 158 639 159 13 1 71 -11 130 -25z m1371 16 c0 -5 -4 -10 -10 -10 -5 0 -10
5 -10 10 0 6 5 10 10 10 6 0 10 -4 10 -10z m-270 -39 c0 -14 -18 -23 -30 -16
-6 4 -8 11 -5 16 8 12 35 12 35 0z m190 -47 c0 -8 -5 -12 -10 -9 -6 4 -8 11
-5 16 9 14 15 11 15 -7z m-2610 -64 c0 -5 -4 -10 -10 -10 -5 0 -10 5 -10 10 0
6 5 10 10 10 6 0 10 -4 10 -10z m-170 -8 c0 -13 -12 -22 -22 -16 -10 6 -1 24
13 24 5 0 9 -4 9 -8z m2870 -117 c0 -8 -4 -15 -9 -15 -13 0 -22 16 -14 24 11
11 23 6 23 -9z m-2950 -10 c0 -8 -4 -15 -10 -15 -5 0 -10 7 -10 15 0 8 5 15
10 15 6 0 10 -7 10 -15z m2940 -220 c0 -8 -4 -15 -10 -15 -5 0 -10 7 -10 15 0
8 5 15 10 15 6 0 10 -7 10 -15z m-3130 -245 c0 -5 -4 -10 -10 -10 -5 0 -10 5
-10 10 0 6 5 10 10 10 6 0 10 -4 10 -10z m3042 -155 c0 -5 -5 -11 -11 -13 -6
-2 -11 4 -11 13 0 9 5 15 11 13 6 -2 11 -8 11 -13z m258 -25 c0 -5 -4 -10 -10
-10 -5 0 -10 5 -10 10 0 6 5 10 10 10 6 0 10 -4 10 -10z m-3385 -70 c3 -5 -1
-10 -9 -10 -9 0 -16 5 -16 10 0 6 4 10 9 10 6 0 13 -4 16 -10z m155 -16 c0
-14 -21 -19 -33 -7 -9 9 13 34 24 27 5 -3 9 -12 9 -20z m2874 -115 c-3 -5 -10
-7 -15 -3 -5 3 -7 10 -3 15 3 5 10 7 15 3 5 -3 7 -10 3 -15z m196 6 c0 -8 10
-22 23 -31 l23 -17 -22 -22 c-11 -12 -24 -28 -28 -36 -5 -12 -7 -12 -12 0 -4
8 -18 25 -31 37 -19 18 -21 23 -8 28 8 3 20 17 27 31 12 27 28 33 28 10z
m-2980 -60 c0 -8 -4 -15 -10 -15 -5 0 -10 7 -10 15 0 8 5 15 10 15 6 0 10 -7
10 -15z m-260 -105 c0 -5 -4 -10 -10 -10 -5 0 -10 5 -10 10 0 6 5 10 10 10 6
0 10 -4 10 -10z m160 -165 c0 -8 -4 -15 -9 -15 -13 0 -22 16 -14 24 11 11 23
6 23 -9z m3174 -236 c-3 -5 -10 -7 -15 -3 -5 3 -7 10 -3 15 3 5 10 7 15 3 5
-3 7 -10 3 -15z m-3234 1 c0 -5 -4 -10 -10 -10 -5 0 -10 5 -10 10 0 6 5 10 10
10 6 0 10 -4 10 -10z m3170 -170 c0 -5 -5 -10 -11 -10 -5 0 -7 5 -4 10 3 6 8
10 11 10 2 0 4 -4 4 -10z m-2720 -188 c0 -13 -12 -22 -22 -16 -10 6 -1 24 13
24 5 0 9 -4 9 -8z m2220 -62 c0 -5 -7 -10 -16 -10 -8 0 -12 5 -9 10 3 6 10 10
16 10 5 0 9 -4 9 -10z m-6 -181 c-15 -17 -18 -17 -39 -1 l-22 16 21 17 c19 16
23 16 39 2 16 -15 16 -18 1 -34z m-1832 -54 c0 -5 -5 -11 -11 -13 -6 -2 -11 4
-11 13 0 9 5 15 11 13 6 -2 11 -8 11 -13z m1178 -5 c0 -5 -2 -10 -4 -10 -3 0
-8 5 -11 10 -3 6 -1 10 4 10 6 0 11 -4 11 -10z m-1280 -100 c0 -5 -7 -10 -15
-10 -8 0 -15 5 -15 10 0 6 7 10 15 10 8 0 15 -4 15 -10z m1622 -15 c0 -5 -5
-11 -11 -13 -6 -2 -11 4 -11 13 0 9 5 15 11 13 6 -2 11 -8 11 -13z m-212 -45
c0 -5 -7 -10 -16 -10 -8 0 -12 5 -9 10 3 6 10 10 16 10 5 0 9 -4 9 -10z m-326
-121 c-3 -5 -10 -7 -15 -3 -5 3 -7 10 -3 15 3 5 10 7 15 3 5 -3 7 -10 3 -15z
m-584 -24 c0 -8 -4 -15 -9 -15 -13 0 -22 16 -14 24 11 11 23 6 23 -9z m255
-25 c3 -5 1 -10 -4 -10 -6 0 -11 5 -11 10 0 6 2 10 4 10 3 0 8 -4 11 -10z"/>
<path d="M2485 3438 c-22 -5 -191 -48 -375 -95 -184 -47 -360 -92 -390 -99
-30 -7 -130 -31 -222 -53 -184 -44 -242 -65 -236 -82 4 -11 832 -289 901 -303
40 -8 93 -64 106 -111 27 -97 3 -235 -41 -243 -10 -2 -86 24 -170 57 -84 33
-210 81 -281 106 -70 25 -207 77 -303 115 -97 38 -182 66 -190 63 -8 -3 -14
-13 -14 -23 0 -13 31 -29 123 -65 136 -53 235 -98 197 -89 -14 3 -62 19 -107
36 -78 29 -86 30 -128 18 -36 -10 -45 -17 -43 -32 3 -20 18 -26 433 -187 88
-34 221 -85 295 -113 192 -73 217 -86 240 -124 32 -50 40 -90 41 -186 0 -143
-38 -184 -123 -134 -24 13 -77 39 -118 56 -41 18 -97 42 -125 55 -500 231
-615 280 -632 269 -27 -17 -19 -28 37 -56 30 -14 118 -56 195 -94 77 -37 134
-69 126 -72 -7 -2 -16 -1 -20 4 -3 5 -13 10 -21 12 -8 2 -71 29 -140 59 -132
59 -164 64 -236 41 -57 -19 -53 -46 11 -77 54 -26 485 -215 655 -287 306 -130
366 -159 397 -192 49 -50 65 -120 61 -257 -2 -97 -6 -118 -24 -142 -30 -39
-51 -39 -124 2 -35 20 -183 96 -329 169 -223 112 -431 218 -624 319 -20 10
-44 16 -52 13 -27 -10 -29 -37 -4 -61 19 -18 391 -210 1004 -518 96 -49 61
-57 565 131 560 209 660 246 760 282 58 21 137 50 177 65 l71 27 -9 30 c-4 17
-11 33 -15 37 -4 3 -4 -2 -1 -12 5 -12 -4 -8 -24 12 -17 17 -35 31 -41 31 -26
0 -253 170 -282 212 -18 25 -42 22 -204 -27 -81 -24 -127 -34 -133 -28 -11 11
5 17 453 163 158 52 284 97 280 100 -4 4 -53 21 -108 39 l-101 34 -256 -85
c-149 -49 -262 -81 -269 -77 -10 6 -9 9 2 13 133 48 233 84 315 111 188 62
217 75 204 91 -6 8 -9 17 -6 20 6 6 -86 74 -99 74 -15 0 -148 96 -174 127 -18
20 -35 31 -42 27 -6 -4 -8 -3 -5 3 13 20 -18 20 -92 1 -40 -10 -76 -20 -80
-21 -3 -1 -8 3 -11 8 -5 10 98 46 382 132 87 26 154 50 150 54 -4 4 -44 19
-90 34 -67 22 -88 25 -110 17 -53 -21 -438 -141 -501 -157 -35 -9 -65 -14 -68
-12 -5 5 -4 5 362 130 138 47 258 88 268 92 26 11 20 28 -8 23 -14 -3 -25 -1
-25 3 0 5 -26 21 -57 36 -32 15 -59 31 -61 36 -2 4 -11 7 -20 7 -16 0 -126 80
-149 109 -10 12 -10 17 0 24 8 5 5 7 -8 3 -11 -3 -76 -18 -145 -35 -69 -16
-190 -48 -269 -70 -105 -29 -148 -38 -160 -30 -12 8 -11 8 8 3 13 -3 21 -2 18
3 -6 9 47 25 595 179 174 49 315 90 314 91 -2 2 -90 25 -197 52 -857 218 -794
204 -854 189z m-1135 -318 c0 -12 -17 -12 -45 0 -17 7 -15 9 13 9 17 1 32 -3
32 -9z m1245 -218 c-3 -3 -11 0 -18 7 -9 10 -8 11 6 5 10 -3 15 -9 12 -12z
m-41 -1 c4 -5 -3 -7 -14 -4 -23 6 -26 13 -6 13 8 0 17 -4 20 -9z m196 -91 c0
-17 -164 -69 -177 -56 -12 12 12 26 78 46 74 22 99 24 99 10z m-421 -84 c13
-52 15 -150 3 -142 -5 3 -10 30 -11 60 -1 30 -6 69 -11 88 -12 40 -12 38 -1
38 5 0 14 -20 20 -44z m421 -26 c0 -11 -169 -64 -178 -56 -10 11 12 25 68 45
60 21 110 26 110 11z m110 -110 c0 -5 -2 -10 -4 -10 -3 0 -8 5 -11 10 -3 6 -1
10 4 10 6 0 11 -4 11 -10z m-52 -327 c-2 -12 -30 -26 -92 -45 -86 -27 -120
-28 -96 -4 11 11 154 64 178 65 8 1 12 -7 10 -16z m-432 -156 l2 -102 -8 75
c-4 41 -11 93 -15 115 -6 33 -5 38 6 27 9 -8 14 -45 15 -115z m434 40 c0 -7
-36 -25 -83 -40 -96 -31 -107 -32 -107 -12 0 9 28 23 78 39 88 29 112 31 112
13z m114 -506 c9 -15 -17 -29 -98 -56 -88 -29 -106 -31 -106 -11 0 8 34 26 83
44 87 33 112 37 121 23z m-475 -121 c13 -79 14 -170 2 -170 -4 0 -11 44 -14
98 -4 53 -10 111 -13 127 -5 21 -3 27 4 20 6 -5 16 -39 21 -75z m481 -19 c0
-15 -17 -23 -113 -58 -73 -26 -89 -29 -94 -17 -7 20 -9 19 82 53 82 31 125 38
125 22z"/>
<path d="M1486 2971 c5 -5 101 -41 214 -80 113 -40 268 -94 345 -122 147 -51
160 -55 150 -40 -3 5 -90 37 -193 72 -103 34 -259 88 -347 121 -159 58 -188
66 -169 49z"/>
<path d="M1506 2901 c14 -13 192 -81 228 -87 l31 -5 -30 15 c-46 24 -211 86
-226 86 -8 0 -9 -3 -3 -9z"/>
<path d="M1500 2830 c0 -5 15 -13 33 -18 17 -5 55 -19 84 -31 32 -12 55 -17
58 -11 4 6 0 12 -7 15 -28 10 -162 55 -165 55 -2 0 -3 -4 -3 -10z"/>
<path d="M1490 2771 c26 -15 366 -141 381 -141 33 0 -18 23 -185 84 -163 60
-240 82 -196 57z"/>
<path d="M1920 2751 c0 -5 44 -26 98 -47 53 -20 117 -45 141 -55 44 -19 64
-18 44 2 -8 8 -267 109 -280 109 -1 0 -3 -4 -3 -9z"/>
<path d="M1533 2473 c9 -8 158 -73 169 -73 11 0 143 -56 361 -152 87 -38 165
-68 175 -66 18 4 -28 28 -158 80 -41 16 -93 38 -115 48 -66 30 -420 170 -430
170 -4 0 -5 -3 -2 -7z"/>
<path d="M1550 2404 c0 -8 226 -114 243 -114 37 0 -81 61 -225 115 -10 4 -18
3 -18 -1z"/>
<path d="M1546 2319 c10 -17 155 -80 173 -76 9 2 -23 22 -72 45 -90 43 -113
50 -101 31z"/>
<path d="M1534 2251 c3 -5 36 -21 73 -37 38 -15 121 -52 186 -81 130 -58 127
-57 127 -43 0 6 -21 20 -47 31 -27 11 -61 26 -78 34 -69 31 -251 105 -258 105
-5 0 -6 -4 -3 -9z"/>
<path d="M1965 2220 c-3 -5 7 -15 22 -21 15 -7 81 -36 146 -65 74 -33 117 -48
117 -40 0 12 -122 74 -180 91 -14 4 -42 16 -62 26 -23 12 -39 15 -43 9z"/>
<path d="M1476 1931 c5 -5 86 -43 179 -86 94 -42 274 -126 401 -186 221 -105
254 -118 254 -101 0 6 -380 189 -440 211 -14 5 -63 27 -110 49 -209 98 -264
122 -278 122 -10 0 -12 -3 -6 -9z"/>
<path d="M1490 1845 c0 -6 50 -32 193 -102 61 -30 107 -47 107 -40 0 7 -62 43
-138 80 -127 62 -162 75 -162 62z"/>
<path d="M1492 1748 c5 -15 188 -109 200 -102 15 10 -1 22 -94 68 -96 48 -112
54 -106 34z"/>
<path d="M1475 1670 c7 -11 431 -220 446 -220 31 0 -27 33 -219 126 -210 102
-239 114 -227 94z"/>
<path d="M1972 1610 c5 -15 336 -175 345 -166 13 12 -21 33 -175 105 -155 72
-176 79 -170 61z"/>
</g>
</svg>
